<?xml version="1.0" standalone="no"?>
<!DOCTYPE svg PUBLIC "-//W3C//DTD SVG 20010904//EN"
 "http://www.w3.org/TR/2001/REC-SVG-20010904/DTD/svg10.dtd">
<svg version="1.0" xmlns="http://www.w3.org/2000/svg"
 width="1282.000000pt" height="1282.000000pt" viewBox="0 0 1282.000000 1282.000000"
 preserveAspectRatio="xMidYMid meet">
<metadata>
Created by potrace 1.11, written by Peter Selinger 2001-2013
</metadata>
<g transform="translate(0.000000,1282.000000) scale(0.100000,-0.100000)"
fill="#000000" stroke="none">
<path d="M6286 12023 c-1 -1 -71 -5 -156 -8 -85 -3 -177 -8 -205 -10 -103 -9
-191 -17 -205 -20 -9 -2 -46 -6 -82 -9 -37 -4 -77 -9 -90 -12 -13 -3 -39 -7
-58 -9 -84 -11 -136 -20 -235 -40 -38 -8 -81 -16 -95 -19 -14 -3 -34 -7 -45
-10 -11 -2 -54 -12 -95 -21 -41 -8 -106 -25 -144 -36 -38 -11 -77 -22 -88 -24
-47 -9 -372 -120 -443 -151 -22 -10 -42 -18 -45 -19 -87 -26 -468 -211 -578
-281 -29 -19 -55 -34 -57 -34 -5 0 -189 -116 -210 -132 -5 -5 -64 -47 -130
-94 -141 -100 -277 -211 -381 -309 -17 -16 -53 -51 -80 -76 -138 -130 -324
-339 -436 -488 -32 -42 -62 -81 -67 -88 -55 -63 -230 -337 -324 -503 -80 -143
-197 -378 -197 -395 0 -8 -4 -15 -10 -15 -5 0 -9 -3 -8 -7 1 -5 -3 -17 -9 -28
-6 -11 -12 -23 -12 -27 -1 -4 -11 -29 -22 -54 -10 -26 -31 -76 -45 -113 -14
-36 -32 -82 -41 -101 -8 -19 -17 -42 -19 -50 -2 -8 -16 -53 -33 -100 -104
-303 -215 -728 -247 -950 -3 -19 -8 -48 -11 -65 -9 -40 -11 -53 -18 -100 -3
-22 -7 -49 -9 -60 -2 -11 -7 -47 -11 -80 -4 -32 -9 -68 -11 -79 -2 -11 -6 -48
-9 -81 -3 -33 -7 -71 -10 -85 -6 -36 -22 -225 -32 -375 -8 -121 -13 -957 -6
-968 3 -5 7 -43 8 -85 4 -102 14 -225 31 -372 2 -25 7 -69 9 -99 3 -30 7 -61
10 -70 2 -9 7 -41 10 -71 3 -30 7 -62 10 -70 2 -8 7 -35 10 -60 2 -25 7 -56
10 -70 3 -14 8 -41 10 -60 3 -19 7 -46 10 -60 3 -14 10 -45 15 -70 4 -25 11
-58 15 -75 3 -16 7 -39 9 -50 5 -27 32 -139 63 -259 13 -55 27 -109 29 -120 2
-12 8 -32 13 -46 5 -14 24 -72 41 -130 49 -162 121 -364 165 -465 8 -16 22
-52 33 -80 11 -27 36 -85 56 -128 20 -42 36 -82 36 -87 0 -6 5 -10 12 -10 6 0
9 -2 6 -5 -8 -9 135 -286 188 -364 13 -19 24 -39 24 -44 0 -4 8 -20 18 -35 11
-15 62 -92 114 -172 53 -80 105 -156 117 -170 11 -14 25 -30 31 -37 5 -7 10
-15 10 -18 0 -4 6 -12 12 -19 7 -7 24 -28 38 -46 14 -18 30 -38 35 -44 6 -6
17 -21 25 -32 72 -104 394 -434 549 -563 24 -20 49 -41 55 -46 42 -40 275
-214 334 -250 10 -5 19 -13 22 -16 7 -10 229 -146 315 -194 96 -54 238 -126
306 -155 41 -18 101 -45 134 -60 33 -15 83 -35 110 -45 28 -10 55 -21 60 -25
12 -8 354 -122 375 -125 8 -1 22 -5 30 -8 8 -4 69 -21 135 -37 131 -34 135
-35 215 -51 30 -6 66 -13 80 -16 31 -8 41 -9 115 -22 33 -6 69 -13 80 -15 19
-4 93 -14 145 -21 14 -2 48 -6 76 -9 28 -3 71 -8 96 -11 48 -7 80 -9 248 -22
137 -10 756 -10 885 0 182 15 289 25 322 31 10 2 47 7 83 11 35 4 74 11 86 15
12 5 24 7 27 4 2 -2 26 0 53 5 27 6 63 12 79 15 17 2 66 12 110 21 44 10 89
19 100 21 36 5 296 74 410 108 6 2 31 9 58 17 26 7 47 16 47 19 0 3 8 6 18 7
25 2 284 99 369 139 40 19 75 34 79 34 8 0 277 132 284 140 3 3 28 16 55 30
28 14 56 30 63 37 7 7 17 13 22 13 9 0 73 40 97 60 7 5 15 10 18 10 5 0 199
126 225 147 8 6 56 42 105 78 50 37 100 78 113 92 12 13 22 21 22 18 0 -4 6 0
13 7 8 7 38 33 67 58 94 78 256 237 380 370 113 122 231 268 338 420 45 63 86
120 92 127 5 7 10 15 10 19 0 4 6 15 14 23 16 18 135 215 186 306 96 173 222
441 301 643 32 80 130 360 133 377 1 6 4 15 8 20 4 8 13 41 23 85 1 3 9 32 19
65 35 117 65 239 60 247 -3 4 -1 8 3 8 5 0 9 8 10 18 1 10 9 46 17 80 9 33 16
65 15 69 -1 4 1 15 4 23 3 8 13 53 21 100 9 47 18 96 21 110 3 14 8 41 11 60
3 19 9 61 15 92 5 32 12 74 14 95 2 21 7 56 10 78 3 22 7 56 10 75 2 19 7 62
10 95 3 33 8 76 10 95 39 329 49 960 20 1395 -6 99 -16 221 -21 260 -3 22 -7
58 -9 80 -4 52 -14 131 -20 175 -3 19 -7 49 -10 65 -10 77 -27 179 -45 280
-11 61 -23 124 -26 140 -2 17 -13 66 -24 110 -10 44 -21 96 -25 115 -6 32 -20
87 -46 180 -6 19 -12 42 -13 50 -2 8 -6 22 -9 30 -3 8 -11 35 -17 60 -15 56
-98 309 -137 415 -61 162 -126 314 -206 475 -44 91 -80 168 -79 172 1 3 -5 12
-13 18 -8 7 -15 16 -15 21 0 5 -18 39 -40 75 -22 36 -40 68 -40 71 0 2 -13 23
-28 46 -16 23 -32 49 -36 57 -19 41 -161 252 -191 284 -13 14 -22 26 -19 26 5
0 -63 91 -107 145 -36 44 -144 171 -165 195 -47 55 -328 339 -331 336 -2 -2
-20 13 -41 33 -53 52 -118 107 -182 155 -30 22 -57 43 -60 47 -3 3 -45 35 -95
71 -166 121 -439 291 -461 287 -4 0 -10 4 -13 9 -6 9 -248 135 -307 159 -16 7
-56 24 -89 39 -175 78 -583 218 -690 237 -11 2 -27 7 -35 10 -8 3 -58 15 -110
27 -52 12 -113 26 -135 31 -51 12 -372 66 -445 74 -30 4 -75 8 -100 10 -98 9
-145 14 -145 15 0 9 -670 32 -679 23z m389 -1507 c55 -4 114 -9 130 -10 52 -6
149 -18 170 -22 10 -2 37 -6 60 -10 56 -8 246 -50 330 -73 119 -33 305 -98
394 -139 30 -13 60 -25 67 -26 7 -1 18 -7 25 -13 8 -5 48 -27 89 -47 98 -49
148 -77 245 -141 44 -28 84 -52 89 -53 5 0 12 -4 15 -9 9 -12 98 -83 105 -83
6 0 26 -16 70 -55 13 -11 54 -48 93 -82 95 -84 163 -153 251 -253 98 -112 109
-125 161 -195 25 -33 48 -62 51 -65 4 -3 9 -9 11 -15 5 -13 101 -159 108 -165
4 -3 13 -18 21 -34 29 -56 35 -66 42 -66 5 0 8 -6 8 -14 0 -7 11 -30 25 -50
13 -20 22 -36 18 -36 -3 0 1 -8 9 -17 8 -10 36 -62 62 -116 109 -226 181 -415
269 -702 33 -106 97 -373 112 -467 3 -18 8 -44 10 -58 12 -59 16 -81 31 -185
26 -185 30 -222 39 -340 3 -38 8 -90 10 -114 23 -215 23 -770 0 -1046 -8 -95
-16 -180 -21 -220 -2 -22 -6 -56 -8 -75 -5 -52 -16 -128 -26 -185 -5 -27 -12
-70 -15 -95 -4 -24 -8 -47 -10 -50 -1 -3 -6 -27 -9 -54 -4 -27 -9 -52 -11 -55
-1 -3 -6 -23 -9 -44 -15 -96 -103 -417 -156 -572 -17 -49 -32 -94 -34 -100 -1
-5 -10 -27 -19 -49 -9 -21 -17 -41 -17 -43 0 -26 -217 -480 -245 -513 -7 -8
-21 -31 -30 -50 -24 -48 -147 -234 -157 -238 -4 -2 -8 -8 -8 -13 0 -5 -9 -19
-20 -31 -10 -13 -19 -27 -19 -32 0 -5 -3 -12 -9 -15 -5 -3 -44 -49 -88 -101
-88 -107 -78 -95 -160 -181 -144 -150 -394 -359 -505 -424 -10 -5 -64 -38
-121 -72 -57 -33 -148 -83 -203 -111 -96 -48 -320 -140 -357 -147 -10 -2 -22
-6 -27 -9 -15 -10 -254 -77 -290 -82 -19 -2 -37 -6 -40 -8 -4 -3 -25 -7 -47
-10 -22 -4 -51 -9 -64 -11 -82 -16 -198 -33 -290 -41 -141 -12 -182 -14 -360
-14 -231 0 -344 6 -470 26 -19 2 -50 7 -68 9 -90 11 -129 19 -272 52 -142 32
-254 63 -305 83 -11 4 -60 23 -110 40 -133 49 -342 147 -437 207 -21 12 -42
23 -48 23 -5 0 -10 5 -10 10 0 6 -4 10 -9 10 -8 0 -141 84 -176 111 -5 5 -47
38 -92 73 -46 36 -83 64 -83 62 0 -2 -21 16 -47 41 -151 143 -204 196 -258
258 -33 38 -72 82 -87 98 -16 16 -28 32 -28 37 0 5 -6 13 -13 17 -8 4 -33 36
-57 71 -24 34 -48 62 -52 62 -4 0 -8 5 -8 11 0 11 -79 131 -93 140 -5 3 -8 8
-6 10 1 2 -9 22 -23 44 -79 126 -226 418 -291 580 -14 33 -28 71 -32 85 -4 14
-13 39 -20 55 -24 55 -82 236 -121 380 -2 6 -5 19 -8 30 -2 11 -12 49 -21 85
-8 36 -18 74 -21 85 -12 51 -73 385 -78 430 -4 28 -11 82 -16 120 -34 259 -45
467 -45 845 1 305 11 535 29 675 3 22 8 63 11 90 8 77 16 146 20 164 4 25 15
93 20 126 5 37 13 82 21 115 3 13 7 38 10 55 4 32 7 46 17 85 4 14 23 93 43
175 43 181 39 165 51 195 6 14 14 41 18 60 4 19 14 47 21 62 8 15 14 29 13 30
-11 16 123 345 221 543 241 487 570 892 963 1181 56 42 109 81 117 88 9 7 22
16 30 20 8 4 24 12 35 19 160 97 409 227 435 227 6 0 25 7 43 16 80 42 448
152 562 169 17 3 41 7 55 10 14 3 45 8 70 11 25 3 47 7 50 9 3 2 34 6 70 10
36 4 73 9 83 11 10 1 68 6 130 9 62 4 113 8 114 8 4 5 321 -1 408 -7z"/>
</g>
</svg>
